<?xml version="1.0" standalone="no"?>
<!DOCTYPE svg PUBLIC "-//W3C//DTD SVG 20010904//EN"
        "http://www.w3.org/TR/2001/REC-SVG-20010904/DTD/svg10.dtd">
<svg version="1.0" xmlns="http://www.w3.org/2000/svg"
     width="700.000000pt" height="648.000000pt" viewBox="0 0 700.000000 648.000000"
     preserveAspectRatio="xMidYMid meet">

    <g transform="translate(0.000000,648.000000) scale(0.100000,-0.100000)"
       fill="#ffffff" stroke="none">
        <path d="M2208 6463 c-10 -2 -18 -9 -18 -14 0 -6 -4 -8 -9 -4 -6 3 -15 -5 -22
-17 -7 -12 -17 -28 -24 -34 -6 -7 -12 -35 -14 -62 -3 -78 29 -127 100 -152 44
-16 78 -8 119 26 47 40 78 132 50 149 -5 3 -10 13 -10 21 0 9 -13 29 -30 46
-16 16 -30 27 -30 23 0 -4 -7 1 -16 9 -15 15 -58 19 -96 9z"/>
        <path d="M4375 6058 c-82 -75 -45 -224 59 -244 71 -13 147 39 162 112 6 33
-25 113 -53 135 -15 12 -16 12 -8 -1 5 -8 -4 -5 -19 8 -44 34 -98 30 -141 -10z"/>
        <path d="M3526 5889 c3 -5 -1 -6 -9 -4 -20 8 -48 -29 -54 -72 -4 -29 1 -46 19
-73 40 -58 112 -50 149 18 20 38 12 88 -18 109 -10 7 -23 16 -29 21 -13 12
-65 12 -58 1z"/>
        <path d="M2052 5600 c-18 -11 -36 -30 -41 -43 -34 -89 83 -158 148 -88 23 25
33 64 21 79 -2 1 -4 7 -5 12 -1 6 -4 13 -5 18 -1 4 -2 11 -1 15 1 5 -3 6 -9 2
-5 -3 -12 0 -15 7 -8 21 -57 20 -93 -2z"/>
        <path d="M2626 5555 c-75 -51 -97 -141 -55 -228 28 -58 76 -89 145 -95 47 -4
58 -1 90 23 76 58 95 177 40 250 -53 70 -156 93 -220 50z"/>
        <path d="M5555 5452 c-38 -27 -65 -76 -65 -118 0 -62 33 -121 74 -131 6 -1 23
-5 37 -9 17 -4 41 2 67 15 62 32 89 83 76 143 -5 27 -57 88 -74 88 -6 0 -10 5
-10 10 0 11 -90 13 -105 2z"/>
        <path d="M4153 5358 c-123 -86 -62 -308 84 -308 53 0 114 29 140 67 48 70 52
119 13 174 -11 14 -16 30 -12 34 4 5 2 5 -5 1 -6 -3 -18 2 -25 12 -34 48 -140
59 -195 20z"/>
        <path d="M852 5144 c-77 -65 -77 -160 0 -229 32 -29 46 -35 84 -35 59 0 108
29 134 81 24 46 25 65 5 112 -13 31 -65 96 -65 81 0 -3 -10 2 -22 10 -39 28
-89 20 -136 -20z"/>
        <path d="M2615 5138 c-20 -57 -36 -112 -49 -163 -8 -33 -24 -91 -36 -130 -46
-148 -67 -234 -60 -245 5 -9 9 -9 14 -1 9 14 26 14 26 0 0 -5 -5 -7 -10 -4 -7
4 -8 -3 -4 -22 9 -39 12 -40 19 -7 3 16 17 65 31 109 13 44 27 90 29 103 6 29
11 48 25 102 6 25 18 84 25 132 8 47 17 98 21 112 5 20 2 26 -10 26 -9 0 -19
-6 -21 -12z"/>
        <path d="M4048 4894 c-21 -55 -31 -90 -22 -83 8 6 14 20 14 31 0 10 4 17 9 14
5 -4 7 4 3 16 -4 16 -2 19 8 13 10 -6 12 -4 7 8 -3 10 -2 17 3 17 5 0 6 7 3
17 -5 12 -3 14 7 8 9 -6 11 -4 6 4 -5 7 0 21 10 32 13 15 14 19 3 19 -9 0 -28
-37 -51 -96z"/>
        <path d="M5024 4559 c-33 -17 -74 -88 -74 -131 0 -87 62 -168 129 -168 77 0
161 87 161 166 0 37 -29 85 -73 118 -36 28 -102 35 -143 15z"/>
        <path d="M3845 4536 c-41 -18 -95 -65 -95 -82 0 -9 -5 -12 -10 -9 -6 4 -10 3
-9 -2 1 -4 -1 -25 -6 -46 -10 -49 6 -105 42 -148 29 -35 94 -68 131 -69 62 0
151 73 171 142 41 136 -98 269 -224 214z"/>
        <path d="M4485 4540 c-71 -7 -227 -44 -255 -61 -12 -6 -9 -8 10 -9 20 0 22 -2
10 -11 -11 -7 -1 -8 35 -4 154 19 226 23 373 20 l163 -2 -3 36 -3 36 -130 1
c-71 1 -161 -2 -200 -6z"/>
        <path d="M2306 4465 c-58 -21 -88 -46 -116 -100 -36 -71 -34 -147 5 -210 36
-58 65 -81 125 -96 117 -31 234 55 247 182 4 46 1 63 -20 104 -31 62 -59 88
-120 114 -57 24 -68 25 -121 6z"/>
        <path d="M1305 4380 c-29 -12 -71 -60 -83 -97 -25 -74 43 -191 119 -207 38 -7
102 8 130 32 43 36 76 140 49 157 -6 4 -8 11 -5 16 4 5 1 9 -5 9 -6 0 -9 4 -6
9 8 12 -50 70 -81 82 -30 11 -91 11 -118 -1z"/>
        <path d="M1618 4248 l4 -54 156 -2 c86 -2 187 -5 223 -8 l66 -6 -1 36 c-1 41
6 38 -126 55 -128 16 -158 20 -245 27 l-80 7 3 -55z"/>
        <path d="M5808 4126 c-43 -19 -70 -60 -70 -110 0 -55 14 -81 52 -101 43 -22
84 -19 120 11 68 58 74 117 17 171 -37 35 -80 46 -119 29z"/>
        <path d="M2640 4113 c-1 -10 -7 -29 -14 -42 -13 -23 -11 -27 23 -55 82 -69
123 -108 277 -261 186 -184 307 -315 376 -405 14 -19 43 -53 63 -75 31 -33
129 -169 170 -236 5 -9 28 -43 51 -75 62 -89 192 -360 211 -437 15 -65 17 -67
29 -45 7 12 13 19 14 13 0 -5 24 16 54 47 29 30 58 57 64 59 8 4 -31 89 -127
277 -19 37 -37 60 -43 56 -7 -4 -8 -2 -4 4 4 7 -4 27 -18 45 -15 19 -26 39
-26 45 0 7 -3 12 -8 12 -4 0 -16 16 -26 35 -11 19 -23 35 -28 35 -4 0 -7 3 -5
8 2 7 -9 23 -45 63 -10 10 -18 23 -18 28 0 5 -7 12 -16 15 -8 3 -13 10 -10 14
3 5 -10 24 -29 42 -19 19 -35 39 -35 46 0 6 -36 44 -80 85 -44 40 -78 74 -76
77 3 2 -21 29 -52 59 -31 30 -51 51 -43 47 9 -5 12 -3 7 4 -4 7 -12 12 -18 12
-6 0 -60 51 -121 113 -60 61 -106 105 -102 97 4 -8 -11 5 -34 30 -22 25 -41
42 -41 38 0 -4 -13 6 -29 22 -15 17 -33 30 -39 30 -7 0 -19 11 -28 25 -9 14
-20 25 -25 25 -5 0 -17 6 -26 14 -23 19 -98 75 -140 104 -30 21 -33 22 -33 5z"/>
        <path d="M3758 4091 c-17 -40 -29 -73 -29 -81 -1 -3 -5 -10 -10 -16 -5 -7 -11
-20 -13 -30 -3 -16 -80 -191 -131 -299 -35 -73 -75 -179 -75 -197 0 -14 5 -18
16 -14 8 3 13 2 10 -3 -5 -8 23 -26 29 -19 2 2 19 35 39 75 22 45 33 79 29 90
-3 10 -3 15 2 11 4 -4 20 20 35 55 56 126 150 354 150 363 0 5 9 27 21 48 11
21 15 35 9 31 -5 -3 -23 0 -39 8 -28 14 -29 14 -43 -22z"/>
        <path d="M6477 4019 c-9 -5 -24 -23 -32 -39 -17 -33 -20 -85 -5 -75 5 3 7 0 5
-8 -7 -16 34 -39 70 -39 68 0 107 54 82 115 -22 52 -75 72 -120 46z"/>
        <path d="M65 3988 c-77 -61 -72 -188 12 -257 44 -36 79 -39 139 -12 33 15 45
28 63 71 16 37 21 64 18 88 -7 42 -48 97 -87 117 -43 22 -112 19 -145 -7z"/>
        <path d="M1450 3989 c0 -5 -4 -8 -8 -5 -5 3 -16 -34 -25 -82 -8 -48 -34 -175
-56 -282 l-41 -195 22 -17 c20 -15 24 -15 31 -2 5 9 7 24 4 35 -3 10 -2 17 2
15 13 -8 72 247 81 349 12 133 12 195 0 195 -5 0 -10 -5 -10 -11z"/>
        <path d="M4855 3941 c-43 -9 -95 -81 -95 -132 0 -64 38 -119 97 -144 38 -16
62 -13 105 12 51 30 72 67 72 127 0 59 -8 74 -68 118 -39 28 -56 31 -111 19z"/>
        <path d="M6352 3799 c-23 -22 -40 -45 -36 -50 3 -5 1 -8 -4 -7 -11 3 -92 -62
-92 -74 0 -4 -18 -24 -40 -44 -43 -39 -44 -47 -7 -50 27 -2 49 14 40 30 -3 6
-3 8 2 4 11 -11 36 12 28 25 -3 5 -1 7 4 4 6 -4 17 1 24 10 12 14 12 16 -1 9
-8 -4 0 4 18 19 18 15 29 32 25 38 -3 7 -3 9 2 5 11 -11 36 12 28 25 -3 6 -1
7 5 3 13 -8 36 30 28 49 -3 9 0 12 10 8 9 -3 14 2 14 16 0 12 -1 21 -2 21 -2
0 -22 -19 -46 -41z"/>
        <path d="M4684 3643 c-4 -10 -8 -22 -9 -28 0 -5 -6 -9 -12 -8 -16 3 -114 -97
-107 -109 4 -7 2 -8 -4 -4 -12 7 -181 -154 -201 -193 -9 -16 -8 -22 8 -31 16
-8 24 -5 46 23 15 17 24 25 20 17 -5 -8 8 1 28 19 37 35 53 58 19 28 -15 -14
-19 -15 -19 -2 0 8 4 12 8 9 4 -2 36 23 71 58 35 34 57 58 49 53 -9 -5 -12 -4
-7 3 4 6 13 9 21 5 8 -3 15 0 15 7 0 6 25 35 56 64 49 45 55 55 49 79 -8 31
-19 35 -31 10z m-284 -347 c0 -2 -8 -10 -17 -17 -16 -13 -17 -12 -4 4 13 16
21 21 21 13z"/>
        <path d="M5885 3629 c-40 -12 -75 -65 -75 -115 0 -55 30 -99 90 -129 46 -23
53 -24 78 -11 46 24 92 92 92 136 0 41 -32 90 -71 110 -41 21 -67 23 -114 9z"/>
        <path d="M6155 3559 c-11 -17 1 -21 15 -4 8 9 8 15 2 15 -6 0 -14 -5 -17 -11z"/>
        <path d="M2688 3525 c-71 -66 -35 -189 58 -202 65 -9 130 64 121 134 -12 83
-119 123 -179 68z"/>
        <path d="M277 3500 c17 -25 45 -58 62 -74 17 -17 31 -36 31 -43 0 -7 4 -13 9
-13 5 0 35 -26 67 -57 32 -32 51 -49 42 -38 -31 41 -74 90 -105 122 -18 18
-33 37 -33 43 0 6 -5 8 -10 5 -6 -3 -14 4 -20 17 -5 13 -24 37 -41 53 l-32 30
30 -45z"/>
        <path d="M3860 3516 c0 -11 30 -39 36 -34 2 3 -5 13 -16 23 -11 10 -20 15 -20
11z"/>
        <path d="M3900 3466 c0 -2 8 -10 18 -17 15 -13 16 -12 3 4 -13 16 -21 21 -21
13z"/>
        <path d="M3986 3375 c4 -8 11 -15 16 -15 6 0 5 6 -2 15 -7 8 -14 15 -16 15 -2
0 -1 -7 2 -15z"/>
        <path d="M695 3302 c-16 -2 -36 -9 -44 -15 -12 -10 -13 -9 -7 1 7 11 4 12 -13
2 -44 -23 -80 -117 -51 -135 5 -3 48 -1 96 5 85 11 139 29 146 50 2 7 16 6 40
-4 42 -18 125 -12 125 9 0 14 -158 73 -222 84 -22 3 -53 4 -70 3z"/>
        <path d="M4060 3306 c0 -2 8 -10 18 -17 15 -13 16 -12 3 4 -13 16 -21 21 -21
13z"/>
        <path d="M5872 3256 c-12 -23 -29 -62 -37 -86 -17 -47 -73 -183 -110 -265 -12
-27 -30 -68 -39 -90 -9 -22 -22 -49 -27 -59 -9 -16 -8 -18 6 -13 9 4 14 3 10
-3 -3 -6 2 -10 13 -10 18 0 55 60 52 84 -1 5 3 12 8 15 21 13 138 271 167 367
9 32 10 46 1 55 -8 8 -8 10 0 6 6 -4 19 2 29 13 14 16 15 20 4 21 -8 0 -23 2
-35 4 -16 4 -25 -5 -42 -39z"/>
        <path d="M1236 3269 c-49 -14 -116 -106 -116 -159 0 -85 59 -173 125 -186 82
-15 164 30 189 104 18 52 21 118 6 127 -6 4 -8 11 -5 16 4 5 -1 12 -9 15 -9 3
-14 10 -11 14 2 4 -4 15 -15 25 -11 10 -20 14 -20 10 0 -5 -7 0 -15 11 -8 10
-15 15 -15 9 0 -6 -3 -5 -8 1 -10 16 -72 24 -106 13z"/>
        <path d="M1005 3210 c-3 -5 1 -10 10 -10 9 0 13 5 10 10 -3 6 -8 10 -10 10 -2
0 -7 -4 -10 -10z"/>
        <path d="M4152 3193 c-89 -49 -134 -132 -112 -212 11 -42 43 -85 54 -73 4 4 6
1 4 -7 -4 -19 57 -50 97 -50 36 -1 104 29 127 55 33 38 50 94 43 145 -4 27
-11 47 -16 43 -5 -3 -6 1 -4 9 3 7 -8 29 -24 48 -17 19 -31 30 -31 24 0 -6 -3
-6 -8 0 -9 14 -59 35 -80 35 -10 0 -32 -8 -50 -17z"/>
        <path d="M998 3168 c5 -5 16 -8 23 -6 8 3 3 7 -10 11 -17 4 -21 3 -13 -5z"/>
        <path d="M6833 3173 c-54 -11 -100 -95 -83 -153 11 -40 49 -92 61 -84 6 3 16
0 24 -6 19 -16 76 -5 108 20 43 34 53 73 33 135 -14 45 -26 60 -56 70 -3 1
-18 7 -33 13 -16 7 -29 11 -30 11 -1 -1 -12 -4 -24 -6z"/>
        <path d="M490 3113 c0 -6 -27 -30 -60 -54 -33 -24 -62 -50 -65 -58 -4 -11 -3
-12 10 -1 11 9 18 10 29 1 8 -7 16 -8 18 -4 1 4 24 27 49 49 41 37 44 43 32
60 -7 10 -13 13 -13 7z"/>
        <path d="M5000 3079 c-14 -5 -37 -24 -52 -40 -30 -33 -36 -44 -15 -33 10 6 10
4 0 -7 -7 -7 -13 -27 -13 -45 0 -73 86 -138 148 -112 32 14 65 44 81 75 14 27
15 90 1 98 -6 4 -8 11 -5 16 4 5 1 9 -5 9 -6 0 -8 5 -5 10 3 6 0 10 -9 10 -8
0 -16 5 -18 11 -5 15 -78 21 -108 8z"/>
        <path d="M250 2952 c-56 -9 -80 -87 -40 -130 28 -30 71 -28 100 3 51 55 12
139 -60 127z"/>
        <path d="M1090 2885 c-9 -11 -10 -19 -3 -26 8 -8 11 -6 10 7 -1 11 4 18 11 17
6 -2 12 2 12 7 0 15 -16 12 -30 -5z"/>
        <path d="M1060 2856 c0 -2 8 -10 18 -17 15 -13 16 -12 3 4 -13 16 -21 21 -21
13z"/>
        <path d="M1025 2811 c-3 -5 -2 -12 3 -15 5 -3 9 1 9 9 0 17 -3 19 -12 6z"/>
        <path d="M902 2697 c-50 -51 -75 -83 -64 -82 9 0 24 5 31 10 11 6 13 4 8 -11
-5 -14 0 -11 18 9 13 15 28 27 32 27 5 0 9 5 9 10 1 6 2 15 3 21 0 5 5 8 10 4
5 -3 13 0 17 6 4 7 3 9 -4 5 -21 -13 -19 20 5 52 13 17 22 32 21 32 -2 0 -41
-37 -86 -83z m38 6 c-1 -19 -19 -35 -30 -28 -8 5 -11 4 -7 -3 10 -15 -4 -44
-18 -38 -7 2 -18 -1 -25 -7 -9 -9 -9 -6 1 10 7 12 19 19 27 15 10 -4 13 -1 8
7 -5 7 0 21 10 32 17 19 34 25 34 12z"/>
        <path d="M4311 2679 c356 -343 389 -374 389 -368 0 8 -341 349 -349 349 -4 0
-31 25 -60 55 -29 30 -58 55 -64 55 -6 0 32 -41 84 -91z"/>
        <path d="M6551 2743 c-40 -20 -61 -59 -61 -116 0 -50 36 -113 63 -111 9 1 14
-2 11 -7 -11 -18 81 -9 114 11 59 36 81 134 37 170 -8 7 -13 16 -10 20 3 5 0
12 -6 16 -8 5 -9 3 -4 -7 4 -8 -2 -4 -14 9 -12 12 -27 23 -34 23 -7 1 -23 3
-38 4 -14 2 -40 -4 -58 -12z"/>
        <path d="M2469 2631 c-47 -39 -64 -79 -60 -148 1 -23 59 -98 69 -89 2 3 13 1
22 -4 13 -7 36 -4 75 8 47 14 61 23 76 52 20 37 26 115 9 125 -6 4 -9 9 -7 13
2 4 -10 19 -25 34 -15 15 -28 24 -28 21 0 -3 -6 0 -14 6 -23 19 -84 9 -117
-18z"/>
        <path d="M5473 2634 c-51 -19 -98 -69 -114 -124 -10 -34 -10 -49 4 -94 29 -91
71 -129 157 -140 125 -17 231 131 182 255 -8 21 -21 39 -29 39 -7 0 -13 5 -13
11 0 5 5 7 12 3 7 -4 8 -3 4 5 -4 6 -12 9 -17 6 -5 -4 -12 1 -15 9 -5 13 -25
24 -59 32 -48 12 -76 11 -112 -2z"/>
        <path d="M832 2595 c4 -4 3 -14 -3 -21 -7 -9 -6 -14 3 -20 7 -4 10 -4 6 1 -4
4 -3 14 3 21 7 9 6 14 -3 20 -7 4 -10 4 -6 -1z"/>
        <path d="M613 2533 c-32 -16 -63 -72 -63 -114 0 -28 23 -70 54 -96 67 -58 171
-4 182 93 4 43 2 53 -23 80 -51 56 -91 66 -150 37z"/>
        <path d="M3944 2522 c-25 -21 -74 -87 -74 -100 0 -6 -6 -12 -12 -14 -10 -4 -8
-22 5 -79 43 -185 52 -274 52 -539 0 -199 -3 -238 -24 -332 -13 -60 -27 -108
-30 -108 -10 0 -74 34 -136 70 -63 37 -231 120 -244 120 -6 0 -27 7 -48 16
-52 23 -73 31 -108 42 -29 8 -31 7 -51 -35 l-21 -43 51 -31 c28 -18 53 -35 56
-38 3 -4 31 -22 63 -40 31 -18 63 -38 70 -44 11 -11 106 -77 146 -102 9 -5 35
-27 59 -48 23 -20 53 -43 67 -49 14 -6 25 -19 25 -29 0 -40 -117 -294 -156
-340 -8 -8 -14 -19 -14 -23 0 -7 -51 -76 -75 -102 -5 -6 -32 -37 -60 -69 -64
-74 -126 -133 -201 -190 -32 -25 -66 -51 -74 -58 -41 -33 -210 -115 -210 -102
0 3 -11 0 -25 -5 -59 -23 -171 -29 -512 -31 l-363 -2 0 -103 0 -104 1305 0
1305 0 0 59 c0 110 -51 285 -129 439 -39 77 -144 255 -165 279 -28 31 -36 43
-36 50 0 4 -16 25 -35 46 -19 21 -35 41 -35 45 0 3 -9 15 -20 27 -11 11 -32
34 -47 51 -15 17 -52 56 -80 88 -29 31 -53 65 -53 74 0 9 11 62 25 117 45 183
77 379 82 503 6 121 6 122 30 122 13 0 52 12 86 27 34 14 112 41 172 59 223
66 536 182 722 265 23 11 47 19 54 19 8 0 9 10 5 32 -3 17 -8 33 -10 35 -2 2
-73 -19 -157 -46 -85 -27 -203 -64 -264 -82 -248 -72 -319 -93 -500 -151 -104
-33 -200 -67 -213 -75 -13 -8 -28 -13 -34 -11 -6 2 -20 53 -30 114 -10 60 -22
120 -27 134 -5 14 -21 70 -36 125 -54 202 -48 186 -71 167z m127 -1629 c152
-158 231 -273 307 -443 36 -79 82 -206 82 -224 0 -14 -980 -9 -994 4 -6 6 20
40 70 89 43 43 102 107 129 142 28 34 60 72 73 84 12 12 22 25 22 29 0 9 53
80 63 84 4 2 7 8 7 13 0 5 33 58 72 117 40 59 79 119 87 135 7 15 16 27 20 27
4 0 32 -26 62 -57z"/>
        <path d="M3658 2438 c-38 -37 -68 -69 -68 -72 0 -2 -15 -20 -32 -39 -18 -18
-76 -85 -128 -147 -52 -62 -103 -121 -114 -131 -10 -10 -15 -22 -11 -28 3 -7
3 -10 -2 -9 -5 2 -26 -16 -46 -39 -37 -41 -38 -42 -21 -67 18 -29 26 -34 18
-11 -4 8 -1 16 5 16 6 1 15 2 20 3 7 1 187 204 251 282 5 7 6 15 2 20 -4 4 1
4 12 0 14 -5 17 -2 12 9 -3 9 -2 14 3 11 16 -10 64 51 58 74 -4 16 -2 19 7 11
9 -8 22 -1 47 26 19 20 28 33 22 29 -14 -8 -18 6 -5 18 4 4 7 16 7 27 0 10 3
19 8 19 4 0 10 0 13 0 4 0 1 -7 -6 -15 -7 -8 -8 -15 -3 -15 15 0 30 43 24 70
-6 24 -9 22 -73 -42z m22 -71 c0 -2 -10 -12 -22 -23 l-23 -19 19 23 c18 21 26
27 26 19z m-95 -96 c3 -5 2 -12 -3 -15 -5 -3 -9 1 -9 9 0 17 3 19 12 6z m-310
-320 c-9 -8 -36 -10 -30 -2 2 4 11 8 20 8 8 0 13 -3 10 -6z m-15 -25 c0 -3 -4
-8 -10 -11 -5 -3 -10 -1 -10 4 0 6 5 11 10 11 6 0 10 -2 10 -4z"/>
        <path d="M1603 2468 c-13 -6 -23 -15 -23 -20 0 -5 -4 -7 -9 -4 -12 8 -61 -87
-61 -119 0 -51 23 -106 57 -135 44 -39 92 -47 151 -24 59 22 69 33 89 89 23
68 11 125 -36 175 -20 22 -40 37 -44 33 -4 -3 -7 -1 -7 5 0 15 -86 15 -117 0z"/>
        <path d="M2630 2326 c0 -2 7 -6 15 -10 8 -3 15 -1 15 4 0 6 -7 10 -15 10 -8 0
-15 -2 -15 -4z"/>
        <path d="M2678 2268 c5 -5 16 -8 23 -6 8 3 3 7 -10 11 -17 4 -21 3 -13 -5z"/>
        <path d="M5790 2265 c0 -2 10 -10 23 -16 20 -11 21 -11 8 4 -13 16 -31 23 -31
12z"/>
        <path d="M2723 2216 c0 -9 4 -16 9 -16 4 0 8 -6 8 -13 0 -7 7 -23 16 -36 13
-18 18 -20 26 -10 7 10 8 8 3 -7 -4 -16 6 -34 38 -70 24 -27 52 -59 63 -71 10
-13 22 -23 27 -23 8 0 -11 41 -23 50 -4 3 -27 32 -51 65 -24 34 -50 67 -57 75
-7 8 -23 28 -36 43 -15 19 -23 23 -23 13z"/>
        <path d="M5885 2190 c10 -11 20 -20 23 -20 3 0 -3 9 -13 20 -10 11 -20 20 -23
20 -3 0 3 -9 13 -20z"/>
        <path d="M1854 2158 c-4 -6 -3 -8 4 -4 6 3 13 -2 16 -12 8 -23 74 -88 82 -79
3 3 -17 29 -44 56 -33 33 -53 47 -58 39z"/>
        <path d="M5931 2147 c2 -1 13 -9 24 -17 19 -14 19 -14 6 3 -7 9 -18 17 -24 17
-6 0 -8 -1 -6 -3z"/>
        <path d="M5980 2116 c0 -2 8 -10 18 -17 15 -13 16 -12 3 4 -13 16 -21 21 -21
13z"/>
        <path d="M6138 2073 c-41 -45 -51 -71 -43 -119 12 -80 96 -139 171 -120 36 9
88 62 80 82 -3 8 -2 12 4 9 16 -10 12 62 -5 95 -41 80 -155 109 -207 53z"/>
        <path d="M1960 1945 c-50 -23 -70 -44 -96 -100 -69 -146 29 -310 186 -310 95
0 190 100 190 201 0 146 -157 264 -280 209z"/>
        <path d="M6623 1898 c-52 -37 -77 -121 -54 -181 23 -60 126 -95 186 -63 91 49
97 169 11 234 -52 39 -97 42 -143 10z"/>
        <path d="M2983 1875 c-47 -20 -93 -97 -93 -154 0 -55 47 -133 91 -151 70 -30
180 15 215 88 38 82 6 177 -72 212 -54 23 -96 25 -141 5z"/>
        <path d="M1103 1788 c-24 -12 -43 -55 -43 -99 0 -31 44 -85 75 -91 46 -10 105
41 110 95 4 43 -17 75 -61 93 -39 16 -51 17 -81 2z"/>
        <path d="M4955 1775 c-46 -21 -68 -42 -59 -56 4 -7 3 -10 -4 -5 -16 9 -35 -59
-27 -97 16 -72 69 -138 97 -121 7 4 8 3 4 -4 -16 -26 90 -17 131 11 43 29 71
110 57 164 -6 22 -15 37 -23 35 -7 -1 -10 1 -7 6 3 5 -7 20 -22 34 -53 50 -92
59 -147 33z"/>
        <path d="M2398 1763 c-47 -4 -47 -4 -41 -36 3 -18 6 -33 7 -33 1 -1 89 -4 197
-6 l196 -4 -1 37 c-1 36 -2 37 -45 43 -45 6 -228 5 -313 -1z"/>
        <path d="M6621 1539 c-33 -35 -37 -77 -11 -103 13 -11 19 -15 15 -7 -5 9 -3
12 6 9 8 -3 13 -11 12 -17 -5 -18 32 -13 50 7 31 35 21 73 -30 115 -20 18 -22
18 -42 -4z"/>
        <path d="M5631 1509 c-57 -62 -22 -139 63 -139 44 0 90 87 62 118 -6 6 -17 18
-24 27 -19 23 -77 19 -101 -6z"/>
        <path d="M1929 1463 c-1 -5 -1 -11 0 -15 0 -5 -3 -8 -8 -8 -5 0 -35 -35 -67
-77 -33 -43 -62 -79 -66 -81 -5 -2 -8 -9 -8 -14 0 -6 -7 -18 -15 -27 -40 -42
-145 -180 -145 -190 0 -14 6 -14 33 0 20 9 20 9 -2 -9 -19 -15 -21 -21 -10
-27 8 -5 11 -5 7 0 -4 4 6 18 23 32 16 14 26 30 22 35 -3 6 -1 8 4 5 6 -4 21
7 34 24 13 17 31 38 39 47 8 8 15 19 15 24 0 4 10 18 22 30 43 45 63 68 58 68
-3 0 -1 6 5 13 20 23 91 121 101 138 7 14 5 21 -10 29 -23 12 -31 13 -32 3z"/>
        <path d="M2930 1411 c-22 -33 -40 -65 -40 -70 0 -6 -5 -11 -12 -11 -6 0 -9 -3
-5 -6 3 -3 -3 -15 -14 -27 -19 -21 -26 -47 -11 -47 10 0 71 88 103 150 13 25
27 47 32 48 10 5 9 22 -3 22 -5 0 -27 -27 -50 -59z"/>
        <path d="M2817 1247 c-3 -8 1 -14 8 -14 7 0 11 6 8 14 -3 7 -6 13 -8 13 -2 0
-5 -6 -8 -13z"/>
        <path d="M4683 1220 c-18 -11 -33 -26 -33 -34 0 -7 -3 -28 -7 -46 -5 -26 -3
-31 7 -25 9 6 11 4 5 -4 -11 -19 31 -52 74 -58 30 -4 43 0 67 20 24 21 29 32
28 70 0 37 -5 49 -30 70 -35 32 -68 34 -111 7z"/>
        <path d="M2783 1192 c-16 -21 -18 -29 -7 -29 8 0 14 7 14 14 0 8 4 12 8 9 4
-2 8 4 8 15 0 10 -1 19 -1 19 -1 0 -11 -13 -22 -28z"/>
        <path d="M2742 1138 c-17 -17 -15 -35 4 -42 8 -3 13 -2 10 3 -3 5 1 14 9 21 8
7 15 16 15 21 0 13 -24 11 -38 -3z m28 -2 c0 -2 -8 -10 -17 -17 -16 -13 -17
-12 -4 4 13 16 21 21 21 13z"/>
        <path d="M2630 1023 c-35 -24 -40 -33 -40 -78 0 -46 6 -57 38 -74 59 -31 119
19 109 90 -9 69 -57 97 -107 62z"/>
        <path d="M1445 988 c-54 -31 -70 -91 -38 -138 26 -38 45 -49 81 -50 39 0 102
58 102 94 0 12 -16 41 -36 64 -38 44 -69 53 -109 30z"/>
    </g>
</svg>
