<svg xmlns="http://www.w3.org/2000/svg" viewBox="0 0 24 24" fill="currentColor" aria-hidden="true">
    <path d="M12 21.0001C9.5 21.0001 7.375 20.1251 5.625 18.3751C3.875 16.6251 3 14.5001 3 12.0001C3 9.75011 3.6625 7.84178 4.9875 6.27511C6.3125 4.70844 8.05 3.70011 10.2 3.25011C10.8833 3.11678 11.35 3.23344 11.6 3.60011C11.85 3.96678 11.8417 4.46678 11.575 5.10011C11.425 5.48344 11.3083 5.87511 11.225 6.27511C11.1417 6.67511 11.1 7.08344 11.1 7.50011C11.1 9.00011 11.625 10.2751 12.675 11.3251C13.725 12.3751 15 12.9001 16.5 12.9001C16.9167 12.9001 17.3208 12.8626 17.7125 12.7876C18.1042 12.7126 18.4833 12.6084 18.85 12.4751C19.5667 12.2084 20.1 12.2209 20.45 12.5126C20.8 12.8043 20.8917 13.3001 20.725 14.0001C20.275 16.0168 19.2667 17.6876 17.7 19.0126C16.1333 20.3376 14.2333 21.0001 12 21.0001ZM12 19.5001C13.8167 19.5001 15.4 18.9376 16.75 17.8126C18.1 16.6876 18.9417 15.3668 19.275 13.8501C18.8583 14.0334 18.4125 14.1709 17.9375 14.2626C17.4625 14.3543 16.9833 14.4001 16.5 14.4001C14.5833 14.4001 12.9542 13.7293 11.6125 12.3876C10.2708 11.0459 9.6 9.41678 9.6 7.50011C9.6 7.10011 9.64167 6.67094 9.725 6.21261C9.80833 5.75428 9.95833 5.23344 10.175 4.65011C8.54167 5.10011 7.1875 6.01261 6.1125 7.38761C5.0375 8.76261 4.5 10.3001 4.5 12.0001C4.5 14.0834 5.22917 15.8543 6.6875 17.3126C8.14583 18.7709 9.91667 19.5001 12 19.5001Z"/>
</svg>